<svg width="303" height="182" xmlns="http://www.w3.org/2000/svg" xmlns:xlink="http://www.w3.org/1999/xlink" xml:space="preserve" overflow="hidden"><defs><clipPath id="clip0"><rect x="0" y="0" width="303" height="182"/></clipPath></defs><g clip-path="url(#clip0)"><path d="M437.682 88.1661 739.965 88.1661 739.965 269.536 437.682 269.536Z" fill="#FFFFFF" transform="matrix(1.00029 0 0 1 -437.807 -88.1661)"/><path d="M552.015 129.591C585.444 129.591 612.544 156.691 612.544 190.119 612.544 205.515 606.678 220.331 596.139 231.554L552.015 190.119Z" stroke="#FFFFFF" stroke-width="1.25952" stroke-linejoin="round" stroke-miterlimit="10" fill="#156082" fill-rule="evenodd" transform="matrix(1.00029 0 0 1 -437.807 -88.1661)"/><path d="M596.139 231.554C590.916 237.116 584.69 241.639 577.787 244.888L552.015 190.119Z" stroke="#FFFFFF" stroke-width="1.25952" stroke-linejoin="round" stroke-miterlimit="10" fill="#E97132" fill-rule="evenodd" transform="matrix(1.00029 0 0 1 -437.807 -88.1661)"/><path d="M577.787 244.888C562.665 252.004 545.273 252.551 529.733 246.398L552.015 190.119Z" stroke="#FFFFFF" stroke-width="1.25952" stroke-linejoin="round" stroke-miterlimit="10" fill="#196B24" fill-rule="evenodd" transform="matrix(1.00029 0 0 1 -437.807 -88.1661)"/><path d="M529.733 246.398 552.015 190.119Z" stroke="#FFFFFF" stroke-width="1.25952" stroke-linejoin="round" stroke-miterlimit="10" fill="#0F9ED5" fill-rule="evenodd" transform="matrix(1.00029 0 0 1 -437.807 -88.1661)"/><path d="M529.733 246.398C528.554 245.931 527.391 245.427 526.243 244.888L552.015 190.119Z" stroke="#FFFFFF" stroke-width="1.25952" stroke-linejoin="round" stroke-miterlimit="10" fill="#A02B93" fill-rule="evenodd" transform="matrix(1.00029 0 0 1 -437.807 -88.1661)"/><path d="M526.244 244.888C495.996 230.654 483.014 194.595 497.247 164.348 507.231 143.133 528.568 129.591 552.015 129.591L552.015 190.119Z" stroke="#FFFFFF" stroke-width="1.25952" stroke-linejoin="round" stroke-miterlimit="10" fill="#FFC000" fill-rule="evenodd" transform="matrix(1.00029 0 0 1 -437.807 -88.1661)"/><path d="M528.052 245.92 526.792 253.477 523.014 253.477" stroke="#A6A6A6" stroke-width="0.629758" stroke-linejoin="round" stroke-miterlimit="10" fill="none" transform="matrix(1.00029 0 0 1 -437.807 -88.1661)"/><text fill="#404040" font-family="Aptos Narrow,Aptos Narrow_MSFontService,sans-serif" font-weight="400" font-stretch="semi-condensed" font-size="12" transform="matrix(0.629938 0 0 0.629758 175.46 77)">37</text><text fill="#404040" font-family="Aptos Narrow,Aptos Narrow_MSFontService,sans-serif" font-weight="400" font-stretch="semi-condensed" font-size="12" transform="matrix(0.629938 0 0 0.629758 183.122 77)">%</text><text fill="#404040" font-family="Aptos Narrow,Aptos Narrow_MSFontService,sans-serif" font-weight="400" font-stretch="semi-condensed" font-size="12" transform="matrix(0.629938 0 0 0.629758 154.429 161)">6</text><text fill="#404040" font-family="Aptos Narrow,Aptos Narrow_MSFontService,sans-serif" font-weight="400" font-stretch="semi-condensed" font-size="12" transform="matrix(0.629938 0 0 0.629758 158.26 161)">%</text><text fill="#404040" font-family="Aptos Narrow,Aptos Narrow_MSFontService,sans-serif" font-weight="400" font-stretch="semi-condensed" font-size="12" transform="matrix(0.629938 0 0 0.629758 110.548 173)">13</text><text fill="#404040" font-family="Aptos Narrow,Aptos Narrow_MSFontService,sans-serif" font-weight="400" font-stretch="semi-condensed" font-size="12" transform="matrix(0.629938 0 0 0.629758 118.21 173)">%</text><text fill="#404040" font-family="Aptos Narrow,Aptos Narrow_MSFontService,sans-serif" font-weight="400" font-stretch="semi-condensed" font-size="12" transform="matrix(0.629938 0 0 0.629758 74.3345 166)">1</text><text fill="#404040" font-family="Aptos Narrow,Aptos Narrow_MSFontService,sans-serif" font-weight="400" font-stretch="semi-condensed" font-size="12" transform="matrix(0.629938 0 0 0.629758 78.1658 166)">%</text><text fill="#404040" font-family="Aptos Narrow,Aptos Narrow_MSFontService,sans-serif" font-weight="400" font-stretch="semi-condensed" font-size="12" transform="matrix(0.629938 0 0 0.629758 36.1641 89)">43</text><text fill="#404040" font-family="Aptos Narrow,Aptos Narrow_MSFontService,sans-serif" font-weight="400" font-stretch="semi-condensed" font-size="12" transform="matrix(0.629938 0 0 0.629758 43.8267 89)">%</text><text fill="#595959" font-family="Aptos Narrow,Aptos Narrow_MSFontService,sans-serif" font-weight="400" font-stretch="semi-condensed" font-size="19" transform="matrix(0.629938 0 0 0.629758 126.309 18)">Top </text><text fill="#595959" font-family="Aptos Narrow,Aptos Narrow_MSFontService,sans-serif" font-weight="400" font-stretch="semi-condensed" font-size="19" transform="matrix(0.629938 0 0 0.629758 145.115 18)">5 </text><text fill="#595959" font-family="Aptos Narrow,Aptos Narrow_MSFontService,sans-serif" font-weight="400" font-stretch="semi-condensed" font-size="19" transform="matrix(0.629938 0 0 0.629758 153.42 18)">Filter</text><path d="M670.062 159.958 673.841 159.958 673.841 163.737 670.062 163.737Z" stroke="#FFFFFF" stroke-width="1.25952" stroke-linejoin="round" stroke-miterlimit="10" fill="#156082" transform="matrix(1.00029 0 0 1 -437.807 -88.1661)"/><text fill="#595959" font-family="Aptos Narrow,Aptos Narrow_MSFontService,sans-serif" font-weight="400" font-stretch="semi-condensed" font-size="12" transform="matrix(0.629938 0 0 0.629758 238.299 76)">Culture</text><path d="M670.062 173.813 673.841 173.813 673.841 178.221 670.062 178.221Z" stroke="#FFFFFF" stroke-width="1.25952" stroke-linejoin="round" stroke-miterlimit="10" fill="#E97132" transform="matrix(1.00029 0 0 1 -437.807 -88.1661)"/><text fill="#595959" font-family="Aptos Narrow,Aptos Narrow_MSFontService,sans-serif" font-weight="400" font-stretch="semi-condensed" font-size="12" transform="matrix(0.629938 0 0 0.629758 238.299 89)">Discovery</text><text fill="#595959" font-family="Aptos Narrow,Aptos Narrow_MSFontService,sans-serif" font-weight="400" font-stretch="semi-condensed" font-size="12" transform="matrix(0.629938 0 0 0.629758 267.761 89)">/</text><text fill="#595959" font-family="Aptos Narrow,Aptos Narrow_MSFontService,sans-serif" font-weight="400" font-stretch="semi-condensed" font-size="12" transform="matrix(0.629938 0 0 0.629758 270.127 89)">Science</text><path d="M670.062 188.298 673.841 188.298 673.841 192.076 670.062 192.076Z" stroke="#FFFFFF" stroke-width="1.25952" stroke-linejoin="round" stroke-miterlimit="10" fill="#196B24" transform="matrix(1.00029 0 0 1 -437.807 -88.1661)"/><text fill="#595959" font-family="Aptos Narrow,Aptos Narrow_MSFontService,sans-serif" font-weight="400" font-stretch="semi-condensed" font-size="12" transform="matrix(0.629938 0 0 0.629758 238.299 104)">Leadership</text><path d="M670.062 202.152 673.841 202.152 673.841 206.561 670.062 206.561Z" stroke="#FFFFFF" stroke-width="1.25952" stroke-linejoin="round" stroke-miterlimit="10" fill="#A02B93" transform="matrix(1.00029 0 0 1 -437.807 -88.1661)"/><text fill="#595959" font-family="Aptos Narrow,Aptos Narrow_MSFontService,sans-serif" font-weight="400" font-stretch="semi-condensed" font-size="12" transform="matrix(0.629938 0 0 0.629758 238.299 118)">Other</text><path d="M670.062 216.637 673.841 216.637 673.841 220.415 670.062 220.415Z" stroke="#FFFFFF" stroke-width="1.25952" stroke-linejoin="round" stroke-miterlimit="10" fill="#FFC000" transform="matrix(1.00029 0 0 1 -437.807 -88.1661)"/><text fill="#595959" font-family="Aptos Narrow,Aptos Narrow_MSFontService,sans-serif" font-weight="400" font-stretch="semi-condensed" font-size="12" transform="matrix(0.629938 0 0 0.629758 238.299 132)">Sports</text><text fill="#595959" font-family="Aptos Narrow,Aptos Narrow_MSFontService,sans-serif" font-weight="400" font-stretch="semi-condensed" font-size="12" transform="matrix(0.629938 0 0 0.629758 257.851 132)">/</text><text fill="#595959" font-family="Aptos Narrow,Aptos Narrow_MSFontService,sans-serif" font-weight="400" font-stretch="semi-condensed" font-size="12" transform="matrix(0.629938 0 0 0.629758 260.216 132)">Games</text><path d="M437.997 88.481 740.28 88.481 740.28 269.851 437.997 269.851Z" stroke="#D9D9D9" stroke-width="0.629758" stroke-linejoin="round" stroke-miterlimit="10" fill="none" transform="matrix(1.00029 0 0 1 -437.807 -88.1661)"/></g></svg>