<svg width="304" height="182" xmlns="http://www.w3.org/2000/svg" xmlns:xlink="http://www.w3.org/1999/xlink" xml:space="preserve" overflow="hidden"><g><path d="M81.2388 84.3875 383.522 84.3875 383.522 265.758 81.2388 265.758Z" fill="#FFFFFF" transform="matrix(1.00359 0 0 1 -81.5301 -84.3875)"/><path d="M232.695 125.812C266.124 125.812 293.224 152.912 293.224 186.341 293.224 187.609 293.184 188.876 293.104 190.142L232.695 186.341Z" stroke="#FFFFFF" stroke-width="1.25952" stroke-linejoin="round" stroke-miterlimit="10" fill="#156082" fill-rule="evenodd" transform="matrix(1.00359 0 0 1 -81.5301 -84.3875)"/><path d="M293.104 190.142C292.706 196.481 291.311 202.718 288.974 208.623L232.695 186.341Z" stroke="#FFFFFF" stroke-width="1.25952" stroke-linejoin="round" stroke-miterlimit="10" fill="#E97132" fill-rule="evenodd" transform="matrix(1.00359 0 0 1 -81.5301 -84.3875)"/><path d="M288.974 208.623C277.747 236.977 247.181 252.552 217.642 244.968L232.695 186.341Z" stroke="#FFFFFF" stroke-width="1.25952" stroke-linejoin="round" stroke-miterlimit="10" fill="#196B24" fill-rule="evenodd" transform="matrix(1.00359 0 0 1 -81.5301 -84.3875)"/><path d="M217.642 244.968 232.695 186.341Z" stroke="#FFFFFF" stroke-width="1.25952" stroke-linejoin="round" stroke-miterlimit="10" fill="#0F9ED5" fill-rule="evenodd" transform="matrix(1.00359 0 0 1 -81.5301 -84.3875)"/><path d="M217.642 244.968C216.414 244.653 215.197 244.299 213.991 243.907L232.695 186.341Z" stroke="#FFFFFF" stroke-width="1.25952" stroke-linejoin="round" stroke-miterlimit="10" fill="#A02B93" fill-rule="evenodd" transform="matrix(1.00359 0 0 1 -81.5301 -84.3875)"/><path d="M213.991 243.907C182.198 233.577 164.799 199.43 175.129 167.636 183.232 142.697 206.473 125.812 232.695 125.812L232.695 186.341Z" stroke="#FFFFFF" stroke-width="1.25952" stroke-linejoin="round" stroke-miterlimit="10" fill="#FFC000" fill-rule="evenodd" transform="matrix(1.00359 0 0 1 -81.5301 -84.3875)"/><path d="M215.692 244.661 213.173 253.477 209.394 253.477" stroke="#A6A6A6" stroke-width="0.629758" stroke-linejoin="round" stroke-miterlimit="10" fill="none" transform="matrix(1.00359 0 0 1 -81.5301 -84.3875)"/><text fill="#404040" font-family="Aptos Narrow,Aptos Narrow_MSFontService,sans-serif" font-weight="400" font-stretch="semi-condensed" font-size="12" transform="matrix(0.632017 0 0 0.629758 201.245 55)">26</text><text fill="#404040" font-family="Aptos Narrow,Aptos Narrow_MSFontService,sans-serif" font-weight="400" font-stretch="semi-condensed" font-size="12" transform="matrix(0.632017 0 0 0.629758 208.933 55)">%</text><text fill="#404040" font-family="Aptos Narrow,Aptos Narrow_MSFontService,sans-serif" font-weight="400" font-stretch="semi-condensed" font-size="12" transform="matrix(0.632017 0 0 0.629758 216.969 119)">5</text><text fill="#404040" font-family="Aptos Narrow,Aptos Narrow_MSFontService,sans-serif" font-weight="400" font-stretch="semi-condensed" font-size="12" transform="matrix(0.632017 0 0 0.629758 220.813 119)">%</text><text fill="#404040" font-family="Aptos Narrow,Aptos Narrow_MSFontService,sans-serif" font-weight="400" font-stretch="semi-condensed" font-size="12" transform="matrix(0.632017 0 0 0.629758 183.692 166)">23</text><text fill="#404040" font-family="Aptos Narrow,Aptos Narrow_MSFontService,sans-serif" font-weight="400" font-stretch="semi-condensed" font-size="12" transform="matrix(0.632017 0 0 0.629758 191.38 166)">%</text><text fill="#404040" font-family="Aptos Narrow,Aptos Narrow_MSFontService,sans-serif" font-weight="400" font-stretch="semi-condensed" font-size="12" transform="matrix(0.632017 0 0 0.629758 117.811 169)">1</text><text fill="#404040" font-family="Aptos Narrow,Aptos Narrow_MSFontService,sans-serif" font-weight="400" font-stretch="semi-condensed" font-size="12" transform="matrix(0.632017 0 0 0.629758 121.655 169)">%</text><text fill="#404040" font-family="Aptos Narrow,Aptos Narrow_MSFontService,sans-serif" font-weight="400" font-stretch="semi-condensed" font-size="12" transform="matrix(0.632017 0 0 0.629758 72.7881 93)">45</text><text fill="#404040" font-family="Aptos Narrow,Aptos Narrow_MSFontService,sans-serif" font-weight="400" font-stretch="semi-condensed" font-size="12" transform="matrix(0.632017 0 0 0.629758 80.476 93)">%</text><text fill="#595959" font-family="Aptos Narrow,Aptos Narrow_MSFontService,sans-serif" font-weight="400" font-stretch="semi-condensed" font-size="19" transform="matrix(0.632017 0 0 0.629758 129.721 18)">Raw Data</text><path d="M81.5536 84.7024 383.837 84.7024 383.837 266.073 81.5536 266.073Z" stroke="#D9D9D9" stroke-width="0.629758" stroke-linejoin="round" stroke-miterlimit="10" fill="none" transform="matrix(1.00359 0 0 1 -81.5301 -84.3875)"/></g></svg>